<svg xmlns="http://www.w3.org/2000/svg" viewBox="0 0 64 64" height="64" width="64"><style>.a{stop-color:#806600;}.b{-inkscape-font-specification:'Daniel Black,  Heavy';font-family:'Daniel Black';font-weight:900;}.c{-inkscape-font-specification:'Daniel Black,  Heavy';fill:#fff;font-family:'Daniel Black';font-weight:900;}</style><defs><linearGradient><stop offset="0" stop-color="#ffd531"/><stop offset="1" stop-color="#f0c100"/></linearGradient><linearGradient><stop offset="0" stop-color="#a80"/><stop offset="1" stop-color="#ffeead"/></linearGradient><linearGradient><stop offset="0" class="a"/><stop offset="1" class="a"/></linearGradient><linearGradient gradientUnits="userSpaceOnUse" y2="4" x2="33" y1="60" x1="33" xlink:href="#linearGradient4272"/><linearGradient gradientUnits="userSpaceOnUse" y2="5" x2="33" y1="58.9" x1="33" xlink:href="#linearGradient4280"/><linearGradient gradientUnits="userSpaceOnUse" y2="58" x2="34.5" y1="5.8" x1="34.5" xlink:href="#linearGradient4288"/></defs><rect width="54" height="56" x="5" y="4" ry="4" style="fill:url(#linearGradient4278);stroke-width:1px"/><rect ry="3.9" y="5" x="6" height="54" width="52" style="fill:url(#linearGradient4286);stroke-width:1px"/><rect width="50" height="52" x="7" y="6" ry="3.7" style="fill:url(#linearGradient4294);stroke-width:1px"/><g style="font-family:sans-serif;font-size:40px;letter-spacing:0px;line-height:100%;opacity:0.3;stroke-width:1px;word-spacing:0px"><path d="m24 20.4-0.7 11.6 0.1 2.8q-0.2 0.3-0.2 0.6l0 1.6-0.3 2.7 0 1.6-0.1 5.7q0 0.1 0.3 0.4-0.1 0-0.4 0.3l-0.3 0-0.3-0.1q-0.7 0.5-0.7 0.9 0 0.1 0 0.1-0.8 0.3-1.5 0.3-0.5 0-0.7-0.2-0.6-0.4-2-1.4l-0.5-3.3 1.4-23.4q0.2-0.9 0.3-2 0.1-0.4 0.2-0.9 0.1-0.2 0.9-2.1 0.6-1.4 1.4-1.6 0.3 0.1 0.7 0.3 1.2 1.3 1.3 1.4 0.7 0.8 1 1.7l0.2 2.9z" class="b"/><path d="m55.3 36.7q0 0.3-1.3 3-0.6 0.4-0.8 1.1-2.3 2.1-5.7 3.8-0.6 0.3-5.7 2.5-0.7 0.1-2.2 0.5-1.5 0.4-1.5 0.4 0 0-0.4 0-0.4 0-0.4 0-0.6-0.6-1.2-0.6-0.1 0-0.3 0-0.1-0.3-0.5-0.7-0.3 0.5-0.7 1.2-0.3 0.1-0.7 0.1-0.1 0-0.2 0l-0.4 0.4-0.3 0q-0.1 0-1.1-0.5-0.5 0.1-0.6 0.1-1-0.9-1-1.4-0.5-0.6-0.6-1.7-0.3-0.5-0.4-1.2 0-0.3-0.2-1.2-0.1-0.8-0.2-0.9 0 0 0 0.1l0-2.1q-0.2-1-0.2-1.4 0-0.1 0-0.2-0.1-0.3-0.1-0.5 0-0.4 0.1-0.7-0.2-0.4-1.3-0.8-0.7-0.9-0.7-1.9 0-0.7 0.6-1.7 0.5-0.9 1.2-1.3l0.1-10q0.1-1 0.3-4.2 0.1-1.8 1-3.1 0.1-0.1 0.5-0.4 0.8-0.4 1-0.4 0.1 0 0.4 0.1 0.4 0.1 0.4 0.1 0.3 0.5 1 1.5 0.3 0.7 0.6 1.9 0 0.1 0 0.2 0 0.3 0.1 0.8 0.1 0.6 0.1 1.5l0.4 9.5q0 0.1 0.2 0.2 0.1-0.1 1.4-0.2l4.1-0.4 4 0.1q0.2 0 1.6 0.1 1.6 0.3 2.8 0.6 0.3 0.1 0.8 0.4 1.6 0.4 3.4 2.1 1.5 1.5 2 2.9 0.7 2.1 0.8 2.1 0 0 0-0.1zm-6.5 0 0-0.3Q48.4 35.8 47.5 35.2 45.4 34.4 42.6 34.2 42.1 34.1 42 34.1q0 0 0 0l-4 0.2q-1 0.1-3.7 1l0 0.6q0 0 0.1 0.3 0.1 0.3 0.1 0.3l0 2.1 0.8 5.2q0.1-0.1 0.2-0.1 0-0.2 0.2-0.4 1.6-0.9 5.1-2.2 3.4-1.3 4.3-2 0.7-0.1 3.6-2.6z" class="b"/></g><g style="fill:#fff;font-family:sans-serif;font-size:40px;letter-spacing:0px;line-height:100%;stroke-width:1px;word-spacing:0px"><path d="m20 21.3-0.7 11.6 0.1 2.8q-0.2 0.3-0.2 0.6l0 1.6-0.3 2.7 0 1.6-0.1 5.7q0 0.1 0.3 0.4-0.1 0-0.4 0.3l-0.3 0-0.3-0.1q-0.7 0.5-0.7 0.9 0 0.1 0 0.1-0.8 0.3-1.5 0.3-0.5 0-0.7-0.2-0.6-0.4-2-1.4l-0.5-3.3 1.4-23.4q0.2-0.9 0.3-2 0.1-0.4 0.2-0.9 0.1-0.2 0.9-2.1 0.6-1.4 1.4-1.6 0.3 0.1 0.7 0.3 1.2 1.3 1.3 1.4 0.7 0.8 1 1.7l0.2 2.9z" class="c"/><path d="m51.3 37.6q0 0.3-1.3 3-0.6 0.4-0.8 1.1-2.3 2.1-5.7 3.8-0.6 0.3-5.7 2.5-0.7 0.1-2.2 0.5-1.5 0.4-1.5 0.4 0 0-0.4 0-0.4 0-0.4 0-0.6-0.6-1.2-0.6-0.1 0-0.3 0-0.1-0.3-0.5-0.7-0.3 0.5-0.7 1.2-0.3 0.1-0.7 0.1-0.1 0-0.2 0l-0.4 0.4-0.3 0q-0.1 0-1.1-0.5-0.5 0.1-0.6 0.1-1-0.9-1-1.4-0.5-0.6-0.6-1.7-0.3-0.5-0.4-1.2 0-0.3-0.2-1.2-0.1-0.8-0.2-0.9 0 0 0 0.1l0-2.1q-0.2-1-0.2-1.4 0-0.1 0-0.2-0.1-0.3-0.1-0.5 0-0.4 0.1-0.7-0.2-0.4-1.3-0.8-0.7-0.9-0.7-1.9 0-0.7 0.6-1.7 0.5-0.9 1.2-1.3l0.1-10q0.1-1 0.3-4.2 0.1-1.8 1-3.1 0.1-0.1 0.5-0.4 0.8-0.4 1-0.4 0.1 0 0.4 0.1 0.4 0.1 0.4 0.1 0.3 0.5 1 1.5 0.3 0.7 0.6 1.9 0 0.1 0 0.2 0 0.3 0.1 0.8 0.1 0.6 0.1 1.5l0.4 9.5q0 0.1 0.2 0.2 0.1-0.1 1.4-0.2l4.1-0.4 4 0.1q0.2 0 1.6 0.1 1.6 0.3 2.8 0.6 0.3 0.1 0.8 0.4 1.6 0.4 3.4 2.1 1.5 1.5 2 2.9 0.7 2.1 0.8 2.1 0 0 0-0.1zm-6.5 0 0-0.3q-0.4-0.5-1.3-1.1-2.1-0.8-4.9-1-0.4-0.1-0.5-0.1 0 0 0 0l-4 0.2q-1 0.1-3.7 1l0 0.6q0 0 0.1 0.3 0.1 0.3 0.1 0.3l0 2.1 0.8 5.2q0.1-0.1 0.2-0.1 0-0.2 0.2-0.4 1.6-0.9 5.1-2.2 3.4-1.3 4.3-2 0.7-0.1 3.6-2.6z" class="c"/></g><flowRoot style="fill:black;font-family:sans-serif;font-size:40px;letter-spacing:0px;line-height:100%;stroke-width:1px;word-spacing:0px"><flowRegion><rect y="-27" x="-23" height="114" width="114"/></flowRegion></flowRoot></svg>

